HIERARCHY
ROOT Hips
{
	OFFSET -0.001795 -0.223333 0.028219
	CHANNELS 6 Xposition Yposition Zposition Zrotation Yrotation Xrotation 
	JOINT LeftUpLeg
	{
		OFFSET 0.069520 -0.091406 -0.006815
		CHANNELS 3 Zrotation Yrotation Xrotation
		JOINT LeftLeg
		{
			OFFSET 0.034277 -0.375199 -0.004496
			CHANNELS 3 Zrotation Yrotation Xrotation
			JOINT LeftFoot
			{
				OFFSET -0.013596 -0.397961 -0.043693
				CHANNELS 3 Zrotation Yrotation Xrotation
				JOINT LeftToe
				{
					OFFSET 0.026358 -0.055791 0.119288
					CHANNELS 3 Zrotation Yrotation Xrotation
					End Site
					{
						OFFSET 0.000000 0.000000 0.000000
					}
				}
			}
		}
	}
	JOINT RightUpLeg
	{
		OFFSET -0.067670 -0.090522 -0.004320
		CHANNELS 3 Zrotation Yrotation Xrotation
		JOINT RightLeg
		{
			OFFSET -0.038290 -0.382569 -0.008850
			CHANNELS 3 Zrotation Yrotation Xrotation
			JOINT RightFoot
			{
				OFFSET 0.015774 -0.398415 -0.042312
				CHANNELS 3 Zrotation Yrotation Xrotation
				JOINT RightToe
				{
					OFFSET -0.025372 -0.048144 0.123348
					CHANNELS 3 Zrotation Yrotation Xrotation
					End Site
					{
						OFFSET 0.000000 0.000000 0.000000
					}
				}
			}
		}
	}
	JOINT Spine
	{
		OFFSET -0.002533 0.108963 -0.026696
		CHANNELS 3 Zrotation Yrotation Xrotation
		JOINT Spine1
		{
			OFFSET 0.005487 0.135180 0.001092
			CHANNELS 3 Zrotation Yrotation Xrotation
			JOINT Spine2
			{
				OFFSET 0.001457 0.052922 0.025425
				CHANNELS 3 Zrotation Yrotation Xrotation
				JOINT Neck
				{
					OFFSET -0.002778 0.213870 -0.042857
					CHANNELS 3 Zrotation Yrotation Xrotation
					JOINT Head
					{
						OFFSET 0.005152 0.064970 0.051349
						CHANNELS 3 Zrotation Yrotation Xrotation
						End Site
						{
							OFFSET 0.000000 0.000000 0.000000
						}
					}
				}
				JOINT LeftShoulder
				{
					OFFSET 0.078845 0.121749 -0.034090
					CHANNELS 3 Zrotation Yrotation Xrotation
					JOINT LeftArm
					{
						OFFSET 0.090977 0.030469 -0.008868
						CHANNELS 3 Zrotation Yrotation Xrotation
						JOINT LeftForeArm
						{
							OFFSET 0.259612 -0.012772 -0.027456
							CHANNELS 3 Zrotation Yrotation Xrotation
							JOINT LeftHand
							{
								OFFSET 0.249234 0.008986 -0.001171
								CHANNELS 3 Zrotation Yrotation Xrotation
								End Site
								{
									OFFSET 0.000000 0.000000 0.000000
								}
							}
						}
					}
				}
				JOINT RightShoulder
				{
					OFFSET -0.081759 0.118833 -0.038615
					CHANNELS 3 Zrotation Yrotation Xrotation
					JOINT RightArm
					{
						OFFSET -0.096012 0.032551 -0.009143
						CHANNELS 3 Zrotation Yrotation Xrotation
						JOINT RightForeArm
						{
							OFFSET -0.253742 -0.013329 -0.021401
							CHANNELS 3 Zrotation Yrotation Xrotation
							JOINT RightHand
							{
								OFFSET -0.255298 0.007772 -0.005559
								CHANNELS 3 Zrotation Yrotation Xrotation
								End Site
								{
									OFFSET 0.000000 0.000000 0.000000
								}
							}
						}
					}
				}
			}
		}
	}
}
MOTION
Frames: 14
Frame Time: 0.050000
-0.000417 0.928996 0.107223 -2.443772 -1.706561 -10.361854 6.283587 0.275899 4.769367 1.149568 -1.027237 20.079717 -4.811838 -6.259778 6.663738 0.000000 0.000000 0.000000 2.561640 -0.437246 3.614107 -1.461804 1.637685 24.912191 -5.497817 -15.103394 9.712865 0.000000 0.000000 0.000000 3.602576 0.905005 -10.917711 -6.413812 3.264763 2.399737 -6.573424 4.136219 5.001150 9.042536 -13.390178 18.983867 0.000000 0.000000 0.000000 -13.749280 -6.267630 0.786240 -59.580268 -20.090291 2.867863 25.963160 -47.559849 -10.369587 0.000000 0.000000 0.000000 -16.304810 11.002255 2.701046 -32.436675 52.031034 -15.880812 -67.302418 -11.783111 9.460516 0.000000 0.000000 0.000000 
0.000099 0.928672 0.108292 -2.358935 -1.945354 -10.694827 6.065515 0.299355 4.986953 1.247729 -1.065336 20.536425 -4.722092 -6.040273 6.788707 0.000000 0.000000 0.000000 2.250890 -0.439241 3.734705 -1.221638 1.605358 25.355063 -5.409720 -14.976702 9.902245 0.000000 0.000000 0.000000 3.712243 0.898476 -10.573575 -6.423888 3.263261 2.158796 -7.213565 4.299560 5.467716 9.384666 -13.849629 18.942507 0.000000 0.000000 0.000000 -14.203648 -6.255004 0.723798 -58.919186 -19.814005 2.639820 26.913388 -48.742823 -11.115048 0.000000 0.000000 0.000000 -17.697879 10.426357 2.452191 -33.509036 50.834637 -15.743035 -68.773223 -15.111731 11.872645 0.000000 0.000000 0.000000 
0.000391 0.927752 0.109417 -2.199455 -1.817383 -11.202158 5.632070 0.335001 5.433450 1.680915 -1.218669 20.819445 -4.693253 -6.078422 6.609015 0.000000 0.000000 0.000000 2.026997 -0.496839 4.318187 -0.984374 1.548804 25.852101 -5.597273 -15.202345 8.893434 0.000000 0.000000 0.000000 3.411798 0.840651 -10.243658 -6.515672 3.312133 2.156221 -7.578166 4.344719 6.241538 8.896817 -13.604259 19.615237 0.000000 0.000000 0.000000 -14.369075 -6.723037 0.922880 -58.433607 -19.845965 2.549030 28.957872 -48.949851 -12.127414 0.000000 0.000000 0.000000 -18.017092 10.105448 2.311897 -34.282551 49.571062 -15.463162 -71.475499 -17.294208 13.939669 0.000000 0.000000 0.000000 
0.000597 0.927027 0.110108 -1.963778 -1.861326 -11.620695 5.151567 0.371384 5.758213 1.721394 -1.277665 21.818047 -3.862981 -5.371355 5.007590 0.000000 0.000000 0.000000 1.536316 -0.521548 4.724109 -0.581682 1.439985 26.234230 -5.627721 -15.180831 8.216837 0.000000 0.000000 0.000000 3.265871 0.802666 -9.901657 -6.637257 3.388637 2.342806 -7.956112 4.137640 6.818193 9.062457 -13.703323 19.354772 0.000000 0.000000 0.000000 -14.791995 -6.455996 0.813478 -57.650013 -19.946669 2.507216 30.471285 -49.286475 -12.871304 0.000000 0.000000 0.000000 -18.219773 9.870841 2.255630 -34.997208 49.065256 -15.588165 -74.908014 -19.426873 16.292401 0.000000 0.000000 0.000000 
0.000869 0.927053 0.109846 -1.673669 -2.201885 -11.965398 4.999823 0.394559 5.877806 1.000146 -1.075502 22.969327 -3.068750 -4.383953 3.968837 0.000000 0.000000 0.000000 1.113845 -0.528389 4.983656 -0.194735 1.350397 26.428399 -5.967537 -15.818798 7.876714 0.000000 0.000000 0.000000 3.237148 0.767305 -9.371278 -6.726654 3.429542 2.106689 -8.164833 4.073855 7.694205 8.518868 -12.765483 18.621407 0.000000 0.000000 0.000000 -15.112997 -6.530701 0.908225 -57.154092 -20.783767 2.810695 32.975932 -47.987097 -13.537473 0.000000 0.000000 0.000000 -18.089496 9.867198 2.262013 -35.809992 48.979156 -15.986771 -77.041290 -21.375538 18.230512 0.000000 0.000000 0.000000 
0.001462 0.927548 0.108017 -1.523012 -2.600443 -12.081356 4.639908 0.400950 5.608960 0.784873 -1.020496 24.170433 -2.279170 -3.281724 3.066741 0.000000 0.000000 0.000000 0.675627 -0.500099 4.922425 0.064490 1.297605 26.445114 -5.754712 -15.410237 7.830026 0.000000 0.000000 0.000000 3.594976 0.792575 -9.099473 -6.718971 3.466039 2.726003 -8.477589 3.689587 7.949951 8.310205 -12.962991 20.185451 0.000000 0.000000 0.000000 -16.070525 -7.000672 1.182522 -55.944718 -21.646405 3.158248 35.140357 -45.935757 -13.731685 0.000000 0.000000 0.000000 -18.347949 9.569454 2.258959 -37.477011 49.823500 -17.258748 -78.254243 -24.149885 20.581405 0.000000 0.000000 0.000000 
0.002481 0.928593 0.104499 -1.134140 -3.141779 -12.005547 4.143289 0.393068 5.069108 0.224493 -0.806664 25.087687 -1.530756 -1.905446 2.815289 0.000000 0.000000 0.000000 -0.065620 -0.400378 4.255459 0.391520 1.264796 26.921436 -5.485450 -14.908637 7.885236 0.000000 0.000000 0.000000 3.595120 0.755473 -8.560886 -6.693372 3.446789 2.482179 -8.434376 3.667101 8.655467 7.453634 -12.120317 20.996716 0.000000 0.000000 0.000000 -16.792319 -8.384002 1.947941 -54.655382 -22.951974 3.621688 37.844585 -42.535178 -13.608141 0.000000 0.000000 0.000000 -17.932858 10.092772 2.402994 -39.520606 51.397565 -19.138433 -79.063890 -25.509062 21.735748 0.000000 0.000000 0.000000 
0.004088 0.929387 0.099495 -0.935623 -3.924098 -12.100800 3.792557 0.382268 4.562969 0.207313 -0.743385 25.548321 -1.604978 -1.633092 3.796319 0.000000 0.000000 0.000000 -0.284196 -0.310550 3.431195 0.144116 1.474234 27.646209 -5.191454 -14.443712 8.362237 0.000000 0.000000 0.000000 3.968077 0.772429 -8.182040 -6.478622 3.381785 3.094136 -8.569812 3.198007 8.562801 6.759958 -11.205951 21.562895 0.000000 0.000000 0.000000 -17.370431 -8.687919 2.278131 -54.468247 -23.977944 4.106497 39.155222 -39.394837 -12.843671 0.000000 0.000000 0.000000 -18.007432 11.032682 2.698506 -41.068577 53.663767 -21.426494 -79.241827 -27.495598 23.186676 0.000000 0.000000 0.000000 
0.005951 0.929779 0.093787 -0.722530 -4.148714 -12.360959 3.595400 0.368543 4.213728 -0.228777 -0.573254 25.952575 -1.394328 -1.042443 4.206429 0.000000 0.000000 0.000000 -0.542349 -0.247769 2.836266 0.130296 1.565148 28.498633 -5.170493 -14.435075 8.492924 0.000000 0.000000 0.000000 4.074676 0.719958 -7.364516 -6.262666 3.321234 3.917182 -8.380680 2.969314 8.542874 5.984304 -10.553734 22.962789 0.000000 0.000000 0.000000 -17.856061 -9.972290 3.020319 -54.590481 -25.237832 4.735549 41.145269 -37.070267 -12.667801 0.000000 0.000000 0.000000 -16.758206 11.784774 2.960575 -42.758003 56.472602 -24.126123 -81.220890 -28.024130 24.328612 0.000000 0.000000 0.000000 
0.007623 0.930085 0.087545 -0.566875 -4.564662 -12.545728 3.124852 0.333756 3.550916 -0.015914 -0.614114 26.408473 -1.350778 -0.454911 5.451269 0.000000 0.000000 0.000000 -0.306589 -0.177068 2.017228 -0.272657 1.813440 29.235649 -5.633484 -15.446684 9.217708 0.000000 0.000000 0.000000 4.323337 0.724373 -7.082031 -5.676054 3.069729 4.977914 -8.381741 2.814028 8.557197 5.721768 -10.818653 25.344064 0.000000 0.000000 0.000000 -18.024997 -10.956365 3.626755 -54.913665 -26.502361 5.399959 42.254842 -35.761211 -12.494066 0.000000 0.000000 0.000000 -15.569391 12.984346 3.320170 -43.546747 59.734592 -26.781391 -81.745441 -27.660292 24.221616 0.000000 0.000000 0.000000 
0.008808 0.930462 0.080970 -0.481432 -4.299393 -12.825413 2.900347 0.301207 3.096072 -0.145978 -0.599833 27.188256 -1.011592 0.024477 4.985717 0.000000 0.000000 0.000000 -0.336201 -0.121601 1.404483 -0.390163 1.921697 30.316739 -5.469833 -15.141105 9.323745 0.000000 0.000000 0.000000 3.839134 0.628247 -6.474485 -4.906592 2.700754 6.288819 -8.100829 2.510903 8.386218 4.799976 -10.290275 28.089994 0.000000 0.000000 0.000000 -18.415908 -12.604704 4.548700 -54.705977 -27.940773 6.105104 44.544743 -35.257911 -13.070978 0.000000 0.000000 0.000000 -13.491015 13.978499 3.710996 -44.185174 63.488260 -29.770011 -84.021709 -25.399895 23.288627 0.000000 0.000000 0.000000 
0.009600 0.930132 0.073440 -0.293803 -4.427719 -13.345240 2.311784 0.259535 2.494503 0.370575 -0.789227 27.970683 -1.057184 0.409269 6.194657 0.000000 0.000000 0.000000 -0.363432 -0.118970 1.387170 -0.909117 2.168751 30.624007 -5.076448 -14.315388 8.785179 0.000000 0.000000 0.000000 3.691437 0.608362 -6.324635 -4.604220 2.605306 7.800253 -7.637338 2.604255 8.866691 4.444351 -10.277233 29.808640 0.000000 0.000000 0.000000 -17.605636 -13.992835 5.297684 -54.823806 -30.280216 7.245411 46.017828 -34.783164 -13.348449 0.000000 0.000000 0.000000 -12.322069 14.636729 3.947446 -42.443722 67.060558 -31.122654 -83.918384 -22.711090 21.046979 0.000000 0.000000 0.000000 
0.010232 0.930418 0.064449 -0.094404 -4.792468 -13.675097 1.844981 0.220537 1.989815 0.575705 -0.841365 28.959841 -0.789901 0.655008 5.585741 0.000000 0.000000 0.000000 -0.392653 -0.072733 0.899027 -1.132867 2.366202 31.322452 -4.886748 -13.839130 8.090491 0.000000 0.000000 0.000000 3.756770 0.547018 -5.426515 -4.263800 2.454582 8.548967 -7.574208 2.806125 9.425670 3.709265 -9.679245 31.458610 0.000000 0.000000 0.000000 -17.583340 -15.937588 6.343506 -52.856130 -32.501833 7.907844 46.955488 -34.520501 -13.555301 0.000000 0.000000 0.000000 -11.531488 15.591269 4.213447 -40.510193 70.567890 -32.181732 -83.790584 -20.032816 18.809198 0.000000 0.000000 0.000000 
0.011010 0.930858 0.053156 -0.164328 -5.242655 -13.828240 1.568014 0.162057 1.285946 1.400666 -1.122116 29.299897 -1.216110 -0.070249 5.880753 0.000000 0.000000 0.000000 0.109287 0.000337 0.101406 -1.623330 2.694337 32.159827 -4.697356 -13.308414 7.230276 0.000000 0.000000 0.000000 4.176208 0.531748 -4.763962 -3.974062 2.401498 10.695959 -7.005386 2.747668 9.054269 3.627481 -9.891023 33.078403 0.000000 0.000000 0.000000 -16.484961 -17.858207 7.313330 -51.329665 -35.040647 8.844398 49.563885 -32.532974 -13.581546 0.000000 0.000000 0.000000 -10.781787 16.912039 4.630554 -37.919691 73.621691 -32.399640 -82.044537 -16.034809 15.032529 0.000000 0.000000 0.000000 
